<?xml version="1.0" encoding="utf-8"?>
<!-- Generator: Adobe Illustrator 24.1.1, SVG Export Plug-In . SVG Version: 6.00 Build 0)  -->
<svg version="1.1" id="Layer_1" xmlns="http://www.w3.org/2000/svg" xmlns:xlink="http://www.w3.org/1999/xlink" x="0px" y="0px"
	 viewBox="0 0 840.3 305" style="enable-background:new 0 0 840.3 305;" xml:space="preserve">
<style type="text/css">
	.st0{fill:#FFFFFF;}
	.st1{fill:url(#SVGID_1_);}
	.st2{fill:url(#SVGID_2_);}
	.st3{fill:url(#SVGID_3_);}
	.st4{fill:url(#SVGID_4_);}
	.st5{clip-path:url(#SVGID_6_);fill:none;stroke:url(#SVGID_7_);stroke-width:10.4178;stroke-miterlimit:10;}
	.st6{display:none;fill:#74B844;}
	.st7{fill:#74B844;}
	.st8{fill:#589341;}
	.st9{fill:#1EAFD8;}
</style>
<g>
	<g>
		<g>
			<path class="st0" d="M31.7,282.8L31.7,282.8c-13,0-23.6-10.6-23.6-23.6V125.1c0-13,10.6-23.6,23.6-23.6h0
				c13,0,23.6,10.6,23.6,23.6v134.1C55.3,272.2,44.7,282.8,31.7,282.8z"/>
			<path class="st0" d="M268.1,282H221v-88.1c0-12.5-4.6-23.3-13.7-32.4c-9.1-9.1-20-13.6-32.6-13.6c-12.9,0-23.8,4.5-32.9,13.4
				c-9.1,8.9-13.7,19.8-13.7,32.6V282H81v-88.2c0-26,9.1-48,27.2-66s40.3-27,66.3-27c26.1,0,48.2,9,66.3,27c18.2,18,27.2,40,27.2,66
				V282z"/>
			<path class="st0" d="M479,193.7c0,4.6-0.3,9.3-1,13.9H341.5c3,9.8,8.6,17.6,16.8,23.6c8.1,5.9,17.3,8.9,27.6,8.9
				c14.2,0,26-5.5,35.3-16.4l28.6,38.1c-17.9,17-39.2,25.5-63.9,25.5c-26.3,0-48.5-9-66.5-27c-18-18-27.1-40.1-27.1-66.4
				c0-26,9.1-48,27.2-66s40.3-27,66.3-27c26.1,0,48.1,9,66.2,27C470,145.7,479,167.7,479,193.7z M426.3,172.3
				c-8.6-16.3-22.1-24.4-40.5-24.4c-18.6,0-32.2,8.2-40.9,24.4H426.3z"/>
			<path class="st0" d="M597.1,147.8c-12.8,0-23.7,4.5-32.8,13.4c-9.1,8.9-13.6,19.8-13.6,32.6V282h-47.1v-88.2c0-26,9.1-48,27.2-66
				c18.2-18,40.3-27,66.3-27V147.8z"/>
		</g>
		<g>
			<linearGradient id="SVGID_1_" gradientUnits="userSpaceOnUse" x1="8.1161" y1="193.9953" x2="597.0527" y2="193.9953">
				<stop  offset="0" style="stop-color:#74B845"/>
				<stop  offset="0.2989" style="stop-color:#33B162"/>
				<stop  offset="0.6006" style="stop-color:#1B9B6A"/>
				<stop  offset="0.9963" style="stop-color:#1FAFD9"/>
			</linearGradient>
			<path class="st1" d="M31.7,282.8L31.7,282.8c-13,0-23.6-10.6-23.6-23.6V125.1c0-13,10.6-23.6,23.6-23.6h0
				c13,0,23.6,10.6,23.6,23.6v134.1C55.3,272.2,44.7,282.8,31.7,282.8z"/>
			<linearGradient id="SVGID_2_" gradientUnits="userSpaceOnUse" x1="8.1161" y1="193.9953" x2="597.0527" y2="193.9953">
				<stop  offset="0" style="stop-color:#74B845"/>
				<stop  offset="0.2989" style="stop-color:#33B162"/>
				<stop  offset="0.6006" style="stop-color:#1B9B6A"/>
				<stop  offset="0.9963" style="stop-color:#1FAFD9"/>
			</linearGradient>
			<path class="st2" d="M268.1,282H221v-88.1c0-12.5-4.6-23.3-13.7-32.4c-9.1-9.1-20-13.6-32.6-13.6c-12.9,0-23.8,4.5-32.9,13.4
				c-9.1,8.9-13.7,19.8-13.7,32.6V282H81v-88.2c0-26,9.1-48,27.2-66s40.3-27,66.3-27c26.1,0,48.2,9,66.3,27c18.2,18,27.2,40,27.2,66
				V282z"/>
			<linearGradient id="SVGID_3_" gradientUnits="userSpaceOnUse" x1="8.1161" y1="193.9953" x2="597.0527" y2="193.9953">
				<stop  offset="0" style="stop-color:#74B845"/>
				<stop  offset="0.2989" style="stop-color:#33B162"/>
				<stop  offset="0.6006" style="stop-color:#1B9B6A"/>
				<stop  offset="0.9963" style="stop-color:#1FAFD9"/>
			</linearGradient>
			<path class="st3" d="M479,193.7c0,4.6-0.3,9.3-1,13.9H341.5c3,9.8,8.6,17.6,16.8,23.6c8.1,5.9,17.3,8.9,27.6,8.9
				c14.2,0,26-5.5,35.3-16.4l28.6,38.1c-17.9,17-39.2,25.5-63.9,25.5c-26.3,0-48.5-9-66.5-27c-18-18-27.1-40.1-27.1-66.4
				c0-26,9.1-48,27.2-66s40.3-27,66.3-27c26.1,0,48.1,9,66.2,27C470,145.7,479,167.7,479,193.7z M426.3,172.3
				c-8.6-16.3-22.1-24.4-40.5-24.4c-18.6,0-32.2,8.2-40.9,24.4H426.3z"/>
			<linearGradient id="SVGID_4_" gradientUnits="userSpaceOnUse" x1="8.1161" y1="193.9953" x2="597.0527" y2="193.9953">
				<stop  offset="0" style="stop-color:#74B845"/>
				<stop  offset="0.2989" style="stop-color:#33B162"/>
				<stop  offset="0.6006" style="stop-color:#1B9B6A"/>
				<stop  offset="0.9963" style="stop-color:#1FAFD9"/>
			</linearGradient>
			<path class="st4" d="M597.1,147.8c-12.8,0-23.7,4.5-32.8,13.4c-9.1,8.9-13.6,19.8-13.6,32.6V282h-47.1v-88.2c0-26,9.1-48,27.2-66
				c18.2-18,40.3-27,66.3-27V147.8z"/>
		</g>
	</g>
	<g>
		<defs>
			<path id="SVGID_5_" d="M675.9,95.9c-15.9,9.1-28.2,21.8-36.9,38.2c-8.7,16.4-13,35.1-13,56.1s4.3,39.7,13,56.1
				c8.7,16.4,21,29.1,37,38.2c16,9.1,34.7,13.6,56.1,13.6c17.6,0,33.2-3.3,46.9-9.9c13.7-6.6,24.9-15.2,33.7-25.8
				c8.8-10.6,15.2-22.1,19.2-34.5v-50.7H724.3v36.9h64.8c-3.8,12.4-10.3,21.9-19.5,28.6c-9.2,6.7-19.9,10-32.1,10
				c-19,0-33.6-5.4-43.9-16.2c-10.3-10.8-15.4-26.3-15.4-46.5c0-18.6,4.9-33.3,14.7-44.2c9.8-10.9,22.8-16.3,39-16.3
				c10.4,0,19.3,2.2,26.7,6.7c7.4,4.5,12.9,10.5,16.5,18.1h54.3c-4.2-22.2-14.9-39.8-32.1-52.8c-17.2-13-39.1-19.5-65.7-19.5
				C710.3,82.3,691.8,86.8,675.9,95.9"/>
		</defs>
		<clipPath id="SVGID_6_">
			<use xlink:href="#SVGID_5_"  style="overflow:visible;"/>
		</clipPath>
		<linearGradient id="SVGID_7_" gradientUnits="userSpaceOnUse" x1="630.8018" y1="311.4807" x2="827.1808" y2="68.9727">
			<stop  offset="0.1704" style="stop-color:#89BD43"/>
			<stop  offset="0.3827" style="stop-color:#CE5C30"/>
			<stop  offset="0.6117" style="stop-color:#8A2A8E"/>
			<stop  offset="0.8715" style="stop-color:#4BA0D8"/>
		</linearGradient>
		<rect x="626" y="82.3" class="st5" width="206" height="215.9"/>
		<linearGradient id="SVGID_8_" gradientUnits="userSpaceOnUse" x1="659.1922" y1="279.2466" x2="803.9552" y2="100.4792">
			<stop  offset="0.1704" style="stop-color:#89BD43"/>
			<stop  offset="0.3827" style="stop-color:#CE5C30"/>
			<stop  offset="0.6117" style="stop-color:#8A2A8E"/>
			<stop  offset="0.8715" style="stop-color:#4BA0D8"/>
		</linearGradient>
		
			<use xlink:href="#SVGID_5_"  style="overflow:visible;fill:none;stroke:url(#SVGID_8_);stroke-width:10.4178;stroke-miterlimit:10;"/>
	</g>
	<path class="st6" d="M23.9,54L23.9,54c-0.3,0-0.5-0.2-0.5-0.5V50c0-0.3,0.2-0.5,0.5-0.5l0,0c0.3,0,0.5,0.2,0.5,0.5v3.5
		C24.5,53.8,24.2,54,23.9,54z"/>
	<path class="st6" d="M23.9,54c0.3,0,0.5-0.3,0.5-0.6v-3.4c0-0.3-0.2-0.6-0.5-0.6c-0.3,0-0.5,0.3-0.5,0.6v3.4
		C23.4,53.8,23.6,54,23.9,54L23.9,54h2.6l0,0c-0.3,0-0.5-0.3-0.5-0.6v-3.4c0-0.3,0.2-0.6,0.5-0.6c0.3,0,0.5,0.3,0.5,0.6v3.4
		c0,0.3-0.2,0.6-0.5,0.6V39c0.3,0,0.5-0.3,0.5-0.6v-3.4c0-0.3-0.2-0.6-0.5-0.6c-0.3,0-0.5,0.3-0.5,0.6v3.4c0,0.3,0.2,0.6,0.5,0.6
		l0,0h-2.6l0,0c-0.3,0-0.5-0.3-0.5-0.6v-3.4c0-0.3,0.2-0.6,0.5-0.6c0.3,0,0.5,0.3,0.5,0.6v3.4c0,0.3-0.2,0.6-0.5,0.6"/>
	<g>
		<g>
			<path class="st7" d="M29.9,49.3c0.2,0.2,0.4,0.5,0.4,0.8c0,0.3-0.1,0.6-0.4,0.8c-0.2,0.2-0.5,0.3-0.9,0.3h-7
				c-0.4,0-0.7-0.1-0.9-0.3c-0.2-0.2-0.4-0.5-0.4-0.8V39c0-0.3,0.1-0.6,0.4-0.8c0.2-0.2,0.5-0.3,0.9-0.3h7c0.4,0,0.7,0.1,0.9,0.3
				c0.2,0.2,0.4,0.5,0.4,0.8c0,0.3-0.1,0.6-0.4,0.8C29.7,39.9,29.4,40,29,40h-3.9c-1,0-1.8,0.7-1.8,1.6v0c0,0.9,0.8,1.6,1.8,1.6h2.9
				c0.4,0,0.7,0.1,0.9,0.3c0.2,0.2,0.4,0.5,0.4,0.8c0,0.3-0.1,0.6-0.4,0.8c-0.2,0.2-0.5,0.3-0.9,0.3h-2.9c-1,0-1.8,0.7-1.8,1.6v0.3
				c0,0.9,0.8,1.6,1.8,1.6H29C29.4,48.9,29.7,49.1,29.9,49.3z"/>
		</g>
		<path class="st7" d="M23.9,39L23.9,39c-0.3,0-0.5-0.2-0.5-0.5V35c0-0.3,0.2-0.5,0.5-0.5l0,0c0.3,0,0.5,0.2,0.5,0.5v3.5
			C24.4,38.8,24.2,39,23.9,39z"/>
		<path class="st7" d="M26.5,39L26.5,39c-0.3,0-0.5-0.2-0.5-0.5V35c0-0.3,0.2-0.5,0.5-0.5l0,0c0.3,0,0.5,0.2,0.5,0.5v3.5
			C27,38.8,26.8,39,26.5,39z"/>
		<path class="st7" d="M26.5,54L26.5,54c-0.3,0-0.5-0.2-0.5-0.5V50c0-0.3,0.2-0.5,0.5-0.5l0,0c0.3,0,0.5,0.2,0.5,0.5v3.5
			C27,53.8,26.8,54,26.5,54z"/>
		<path class="st7" d="M23.9,54L23.9,54c-0.3,0-0.5-0.2-0.5-0.5V50c0-0.3,0.2-0.5,0.5-0.5l0,0c0.3,0,0.5,0.2,0.5,0.5v3.5
			C24.4,53.8,24.2,54,23.9,54z"/>
		<g>
			<path class="st7" d="M32.5,90.3c-9.3,0-17-3.5-22.2-10.2C4,72,1.8,59.4,4.6,47.9C10.1,25.5,35.3,7.3,36.3,6.6l6.2-4.5L41,10.3
				c-1.1,6-2.4,12.7,14.8,36c5.7,7.6,6.1,19.3,1.2,28.9C52.1,84.8,43.2,90.3,32.5,90.3z M34.2,16.1c-7.5,6.5-20.3,19.2-23.8,33.3
				c-2.4,9.7-0.6,20.2,4.7,27c4,5.3,9.9,7.9,17.4,7.9c11.4,0,16.8-7.3,19-11.6c3.8-7.6,3.5-16.9-0.7-22.7
				C37.5,31.8,34.4,22.5,34.2,16.1z"/>
		</g>
		<path class="st8" d="M15.4,50c0,0-3.5,19,14.8,31C30.2,80.9,9.1,78.8,15.4,50z"/>
		<path class="st9" d="M28.2,71.5c-0.1,0.3-0.1,0.5-0.1,0.8c0,1.2,0.7,2.2,1.8,2.7v0.3c0,1.7,1.5,3.1,3.3,3.1c0.2,0,0.4,0,0.6-0.1
			c0.4,0.9,1.3,1.4,2.4,1.4c0.9,0,1.7-0.4,2.1-1.1h1.5c0.2,0,0.4-0.2,0.4-0.4v-1.7c1.1-0.2,2.1-0.6,3-1.2l1.2,1.2
			c0.1,0.1,0.2,0.1,0.3,0.1c0.1,0,0.2,0,0.3-0.1l2.1-2.1c0.1-0.1,0.1-0.4,0-0.5l-1.2-1.2c0.6-0.9,1-1.9,1.2-3h1.7
			c0.2,0,0.4-0.2,0.4-0.4v-3c0-0.2-0.2-0.4-0.4-0.4H47c-0.2-1.1-0.6-2.1-1.2-3l1.2-1.2c0.1-0.1,0.1-0.4,0-0.5l-2.1-2.1
			c-0.1-0.1-0.4-0.1-0.5,0l-1.2,1.2c-0.9-0.6-1.9-1-3-1.2v-1.7c0-0.2-0.2-0.4-0.4-0.4h-1.8c-0.4-0.5-1.1-0.7-1.8-0.7
			c-0.9,0-1.7,0.5-2.2,1.2h-0.7c-1.8,0-3.3,1.4-3.3,3.1v0.1c-1.6,0.1-2.8,1.4-2.8,3c0,0.7,0.2,1.3,0.6,1.8c-1.1,0.5-1.8,1.7-1.8,2.9
			C26,69.8,26.9,71,28.2,71.5z M39.4,57.7v1.6c0,0.2,0.1,0.3,0.3,0.4c1.2,0.2,2.3,0.7,3.3,1.4c0.1,0.1,0.3,0.1,0.5,0l1.1-1.1
			l1.6,1.6L45,62.6c-0.1,0.1-0.1,0.3,0,0.5c0.7,1,1.2,2.1,1.4,3.3c0,0.2,0.2,0.3,0.4,0.3h1.6v2.2h-1.6c-0.2,0-0.3,0.1-0.4,0.3
			c-0.2,1.2-0.7,2.3-1.4,3.3c-0.1,0.1-0.1,0.3,0,0.5l1.1,1.1l-1.6,1.6l-1.1-1.1c-0.1-0.1-0.3-0.1-0.5,0c-1,0.7-2.1,1.2-3.3,1.4
			c-0.2,0-0.3,0.2-0.3,0.4v1.6h-0.8c0-0.2,0.1-0.4,0.1-0.6v-3.8c2.9-0.2,5.2-2.6,5.2-5.6c0-3-2.3-5.4-5.2-5.6v-3.4
			c0-0.4-0.1-0.8-0.2-1.1H39.4z M38.6,72.6v-9.6c2.5,0.2,4.5,2.3,4.5,4.8C43.1,70.3,41.1,72.4,38.6,72.6z M28.4,66.1
			c0.5,0.4,1.2,0.7,1.9,0.7c0.2,0,0.4-0.2,0.4-0.4S30.5,66,30.3,66C29,66,28,65,28,63.7c0-1.3,1-2.3,2.3-2.3c0.6,0,1.2,0.2,1.6,0.7
			c0.1,0.1,0.4,0.1,0.5,0c0.1-0.1,0.1-0.4,0-0.5c-0.5-0.5-1-0.8-1.7-0.9v-0.1c0-1.3,1.1-2.4,2.5-2.4h0.4c-0.1,0.2-0.1,0.4-0.1,0.6
			c0,0.1,0,0.2,0,0.3c0,0.2,0.2,0.4,0.4,0.3c0.2,0,0.4-0.2,0.3-0.4c0-0.1,0-0.2,0-0.3c0-1,0.8-1.9,1.9-1.9c1,0,1.7,0.8,1.7,1.8v18.4
			c0,1-0.7,1.8-1.7,1.8c-1,0-1.9-0.8-1.9-1.7c0-0.3,0.1-0.5,0.2-0.8c0.1-0.2,0-0.4-0.2-0.5c-0.2-0.1-0.4,0-0.5,0.2
			c-0.2,0.3-0.2,0.7-0.2,1.1c0,0.1,0,0.2,0,0.3c-0.1,0-0.3,0-0.4,0c-1.4,0-2.5-1.1-2.5-2.4v-0.1c0.2,0,0.3,0,0.5,0
			c0.5,0,0.9-0.1,1.3-0.3c0.2-0.1,0.3-0.3,0.2-0.5c-0.1-0.2-0.3-0.3-0.5-0.2c-0.3,0.1-0.7,0.2-1,0.2c-1.3,0-2.3-1-2.3-2.2
			c0-1.1,0.9-2.1,2.1-2.2c0.2,0,0.4-0.2,0.3-0.4c0-0.2-0.2-0.4-0.4-0.3c-1,0.1-1.9,0.6-2.4,1.4c-0.9-0.3-1.8-1.2-1.8-2.4
			C26.7,67.4,27.4,66.5,28.4,66.1z"/>
		<path class="st9" d="M31.7,64.6c0.2,0,0.4,0,0.6,0c1.2,0,2.8-0.5,3.2-2.5c0-0.2-0.1-0.4-0.3-0.4c-0.2,0-0.4,0.1-0.4,0.3
			c-0.5,2.3-2.9,1.9-3,1.9c-0.2,0-0.4,0.1-0.4,0.3C31.4,64.3,31.5,64.5,31.7,64.6z"/>
		<path class="st9" d="M34.5,71.4c-0.8-0.5-1.6-0.2-1.7-0.2c-0.2,0.1-0.3,0.3-0.3,0.5c0.1,0.2,0.3,0.3,0.5,0.3c0.2,0,1.5-0.3,2,1.5
			c0,0.2,0.2,0.3,0.4,0.3c0,0,0.1,0,0.1,0c0.2-0.1,0.3-0.3,0.3-0.5C35.5,72.4,35.1,71.8,34.5,71.4z"/>
	</g>
</g>
</svg>
